<svg width="460" height="519" viewBox="0 0 460 519" fill="none" xmlns="http://www.w3.org/2000/svg">
<path d="M244.421 267.98L420.451 259.31C420.861 259.29 420.861 258.68 420.451 258.66L244.421 250.02L235.801 44.1904C235.781 43.7504 235.121 43.7504 235.101 44.1904L226.461 250.02L37.8105 258.59C37.3105 258.61 37.3105 259.35 37.8105 259.37L226.461 267.97L235.181 475.66C235.191 476 235.701 476 235.721 475.66L244.411 267.97" fill="#002555"/>
<path d="M279.681 302.24V472.29H279.691H411.841V448.78H304.251V396.69H399.041V373.18H304.251V325.75H411.841V302.24H279.691H279.681Z" fill="#002555"/>
<path d="M402.57 192.491H358.06V69.9407H402.57V46.4307H288.98V69.9407H333.49V192.491H288.98V216.001H402.57V192.491Z" fill="#002555"/>
<path d="M72.6208 85.2107L161.991 216.001H191.121V46.4307H166.551V176.501L77.7408 46.4307H48.0508V216.001H72.6208V85.2107Z" fill="#002555"/>
<path d="M123.031 319.771C123.031 319.771 136.071 319.511 147.911 324.741C162.161 331.041 171.711 342.611 176.151 359.511H201.961C195.121 324.441 174.211 308.751 157.861 301.561C140.421 293.891 123.191 294.531 123.081 294.531C95.0908 294.531 73.7508 303.931 59.6008 322.461C47.5208 338.281 41.1308 360.541 41.0908 386.821C41.1308 413.111 47.5208 435.361 59.6008 451.181C73.7508 469.711 95.0908 479.101 123.081 479.111C123.181 479.111 140.411 479.751 157.861 472.081C174.211 464.891 195.121 449.201 201.961 414.131H176.151C171.711 431.031 162.161 442.611 147.911 448.901C136.081 454.131 123.031 453.871 123.031 453.871C93.3408 453.871 82.9808 440.301 79.5708 435.841C70.8808 424.461 66.2708 407.511 66.2408 386.821C66.2708 366.131 70.8808 349.181 79.5708 337.801C82.9808 333.341 93.3408 319.771 123.031 319.771Z" fill="#002555"/>
</svg>
